<svg width="89" height="101" viewBox="0 0 89 101" fill="none" xmlns="http://www.w3.org/2000/svg">
<g clip-path="url(#clip0_20_571)">
<path d="M9.88501 35.7407L0 101H15.8858L12.7924 35.8945C12.7847 35.5195 12.6378 35.1613 12.3812 34.892C12.1246 34.6227 11.7772 34.4622 11.409 34.4427C11.0407 34.4232 10.6789 34.5462 10.3962 34.787C10.1135 35.0278 9.93084 35.3685 9.88501 35.7407Z" fill="#FFA305"/>
<path d="M83.5866 67.0337L76.9927 25.633C76.7909 24.3928 76.1641 23.2653 75.2232 22.4502C74.2824 21.6351 73.0884 21.1849 71.8525 21.1794H66.817V12.2842C66.8139 9.0282 65.5413 5.90638 63.2783 3.6035C61.0153 1.30062 57.9467 0.00469689 54.7456 0L39.2145 0C36.0124 0.00468944 32.9426 1.30023 30.6777 3.60278C28.4129 5.90532 27.1377 9.02711 27.1316 12.2842V21.1972H21.5145C20.7951 21.2006 20.0841 21.355 19.4259 21.6505C18.7678 21.946 18.1766 22.3764 17.6893 22.9148C17.202 23.4532 16.8291 24.088 16.5938 24.7795C16.3586 25.4711 16.266 26.2046 16.322 26.9341L21.7937 95.3399L22.2472 100.994H89.0001L83.5866 67.0337ZM64.7935 26.9874C65.5513 26.9874 66.2922 27.2159 66.9224 27.6442C67.5525 28.0725 68.0436 28.6812 68.3337 29.3934C68.6237 30.1056 68.6996 30.8893 68.5517 31.6453C68.4039 32.4014 68.0389 33.0959 67.503 33.6409C66.9671 34.186 66.2843 34.5572 65.541 34.7076C64.7977 34.858 64.0272 34.7808 63.3271 34.4858C62.6269 34.1908 62.0284 33.6913 61.6074 33.0503C61.1863 32.4094 60.9616 31.6558 60.9616 30.8849C60.9608 30.3729 61.0594 29.8657 61.2517 29.3925C61.444 28.9192 61.7262 28.4893 62.0822 28.1272C62.4382 27.7651 62.8609 27.4781 63.3262 27.2825C63.7914 27.0869 64.29 26.9866 64.7935 26.9874ZM64.5434 70.2452L57.2111 77.7624L48.3378 68.6838L46.0875 76.5972C45.9691 77.0168 45.7155 77.3838 45.3673 77.639C45.0192 77.8943 44.5967 78.023 44.1679 78.0046C43.7392 77.9862 43.3289 77.8216 43.0032 77.5374C42.6774 77.2532 42.4551 76.8658 42.3719 76.4376L37.6678 52.5493C37.6096 52.2359 37.6279 51.9126 37.721 51.608C37.8141 51.3034 37.9792 51.0266 38.2018 50.8019C38.4245 50.5772 38.6979 50.4114 38.9981 50.3191C39.2983 50.2268 39.6162 50.2107 39.9239 50.2723L63.2584 55.0689C63.6783 55.1593 64.0566 55.3894 64.3335 55.7229C64.6105 56.0565 64.7702 56.4744 64.7876 56.9106C64.8049 57.3468 64.6788 57.7764 64.4293 58.1316C64.1797 58.4868 63.8209 58.7472 63.4096 58.8718L55.6644 61.1607L64.5434 70.2452ZM31.5624 12.2842C31.5639 11.2636 31.763 10.2533 32.1484 9.31106C32.5338 8.36877 33.0979 7.51291 33.8085 6.79236C34.519 6.07181 35.3622 5.50067 36.2897 5.11155C37.2173 4.72243 38.2112 4.52295 39.2145 4.52451H54.7456C56.767 4.5292 58.7042 5.34843 60.1329 6.8028C61.5617 8.25718 62.3657 10.2282 62.3687 12.2842V21.1972H31.5856L31.5624 12.2842ZM29.3586 26.9874C30.1165 26.9874 30.8573 27.2159 31.4875 27.6442C32.1176 28.0725 32.6088 28.6812 32.8988 29.3934C33.1888 30.1056 33.2647 30.8893 33.1169 31.6453C32.969 32.4014 32.6041 33.0959 32.0682 33.6409C31.5323 34.186 30.8495 34.5572 30.1062 34.7076C29.3628 34.858 28.5924 34.7808 27.8922 34.4858C27.192 34.1908 26.5935 33.6913 26.1725 33.0503C25.7514 32.4094 25.5267 31.6558 25.5267 30.8849C25.5267 29.8512 25.9304 28.8599 26.649 28.1289C27.3677 27.398 28.3423 26.9874 29.3586 26.9874Z" fill="#F13005"/>
</g>
<defs>
<clipPath id="clip0_20_571">
<rect width="89" height="101" fill="white"/>
</clipPath>
</defs>
</svg>
