<svg width="21" height="21" viewBox="0 0 21 21" fill="none" xmlns="http://www.w3.org/2000/svg">
<path d="M16.0417 2.58333H15.25V1.79167C15.25 1.35467 14.8953 1 14.4583 1C14.0213 1 13.6667 1.35467 13.6667 1.79167V2.58333H7.33333V1.79167C7.33333 1.35467 6.97867 1 6.54167 1C6.10467 1 5.75 1.35467 5.75 1.79167V2.58333H4.95833C2.77571 2.58333 1 4.35904 1 6.54167V16.0417C1 18.2243 2.77571 20 4.95833 20H16.0417C18.2243 20 20 18.2243 20 16.0417V6.54167C20 4.35904 18.2243 2.58333 16.0417 2.58333ZM4.95833 4.16667H16.0417C17.3511 4.16667 18.4167 5.23225 18.4167 6.54167V7.33333H2.58333V6.54167C2.58333 5.23225 3.64892 4.16667 4.95833 4.16667ZM16.0417 18.4167H4.95833C3.64892 18.4167 2.58333 17.3511 2.58333 16.0417V8.91667H18.4167V16.0417C18.4167 17.3511 17.3511 18.4167 16.0417 18.4167ZM13.6667 13.6667C13.6667 14.1037 13.312 14.4583 12.875 14.4583H8.125C7.688 14.4583 7.33333 14.1037 7.33333 13.6667C7.33333 13.2297 7.688 12.875 8.125 12.875H12.875C13.312 12.875 13.6667 13.2297 13.6667 13.6667Z" fill="#F13005" stroke="#F13005" stroke-width="0.5"/>
</svg>
